<svg width="161" height="30" viewBox="0 0 161 30" fill="none" xmlns="http://www.w3.org/2000/svg">
<path d="M144.063 19.106H151.346L147.722 11.3738L144.063 19.106ZM134.444 27.398L147.478 1.82227H147.966L161 27.398H155.703L153.716 23.3745H141.693L139.741 27.398H134.444Z" fill="white"/>
<path d="M137.435 13.4031C137.412 13.8929 137.4 14.3477 137.4 14.7676C137.377 15.1408 137.366 15.5081 137.366 15.8698C137.366 16.2313 137.354 16.5053 137.331 16.6918C137.191 18.3014 136.756 19.7941 136.024 21.1703C135.292 22.5464 134.351 23.7302 133.201 24.7215C132.051 25.7129 130.727 26.4884 129.228 27.0481C127.729 27.6079 126.155 27.8878 124.506 27.8878C122.693 27.8878 120.986 27.538 119.383 26.8383C117.779 26.1386 116.374 25.188 115.172 23.9867C113.969 22.7855 113.017 21.3802 112.314 19.7708C111.611 18.1613 111.262 16.447 111.262 14.6276C111.262 12.8083 111.611 11.0882 112.314 9.46702C113.017 7.846 113.969 6.43482 115.172 5.2336C116.374 4.03238 117.779 3.08179 119.383 2.38208C120.986 1.68237 122.693 1.33252 124.506 1.33252C126.806 1.33252 128.914 1.86893 130.831 2.9419C132.748 4.01486 134.299 5.44932 135.484 7.24526L131.302 9.79935C130.558 8.70312 129.588 7.78181 128.392 7.03543C127.195 6.28905 125.9 5.91579 124.506 5.91579C123.344 5.91579 122.258 6.15491 121.247 6.63301C120.236 7.11126 119.354 7.74677 118.598 8.53982C117.843 9.33288 117.245 10.2601 116.804 11.3214C116.362 12.3826 116.141 13.4847 116.141 14.6276C116.141 15.7939 116.362 16.9018 116.804 17.9515C117.245 19.0011 117.843 19.9224 118.598 20.7154C119.354 21.5085 120.236 22.1441 121.247 22.6222C122.258 23.1003 123.344 23.3395 124.506 23.3395C125.389 23.3395 126.237 23.2055 127.05 22.9372C127.863 22.6689 128.606 22.2899 129.28 21.8C129.954 21.3101 130.541 20.7271 131.04 20.0508C131.54 19.3742 131.906 18.6279 132.138 17.8115H122.728V13.4031H137.435Z" fill="white"/>
<path d="M85.1921 21.1006C84.6345 22.1269 83.9491 23.054 83.1359 23.882C82.3227 24.7101 81.4224 25.4214 80.435 26.0163C79.4475 26.611 78.3787 27.0717 77.2287 27.3982C76.0787 27.7248 74.8879 27.8881 73.6564 27.8881C71.8443 27.8881 70.1365 27.5382 68.5334 26.8385C66.9303 26.1388 65.5304 25.1882 64.334 23.987C63.1375 22.7858 62.1906 21.3805 61.4936 19.7711C60.7966 18.1616 60.448 16.4472 60.448 14.6279C60.448 12.8085 60.7966 11.0942 61.4936 9.48479C62.1906 7.87541 63.1375 6.47011 64.334 5.26876C65.5304 4.06754 66.9303 3.11708 68.5334 2.41737C70.1365 1.71753 71.8443 1.36768 73.6564 1.36768C74.8879 1.36768 76.0787 1.53097 77.2287 1.85755C78.3787 2.18413 79.4475 2.64472 80.435 3.23958C81.4224 3.8343 82.3227 4.54578 83.1359 5.37374C83.9491 6.20183 84.6345 7.11739 85.1921 8.12028L80.6266 9.97453C80.2549 9.41484 79.8192 8.88993 79.3198 8.40019C78.8202 7.91031 78.2684 7.47888 77.6643 7.10562C77.0603 6.73236 76.4213 6.44082 75.7475 6.23099C75.0737 6.02102 74.3767 5.91604 73.6564 5.91604C72.4948 5.91604 71.4086 6.15516 70.3979 6.63327C69.3872 7.11151 68.5102 7.74702 67.7668 8.54007C67.0232 9.33313 66.4308 10.2603 65.9893 11.3217C65.548 12.3828 65.3272 13.485 65.3272 14.6279C65.3272 15.7942 65.548 16.9021 65.9893 17.9517C66.4308 19.0013 67.0232 19.9226 67.7668 20.7157C68.5102 21.5087 69.3872 22.1444 70.3979 22.6225C71.4086 23.1006 72.4948 23.3397 73.6564 23.3397C74.3767 23.3397 75.0737 23.2347 75.7475 23.0249C76.4213 22.8149 77.0603 22.5234 77.6643 22.1501C78.2684 21.777 78.8202 21.3397 79.3198 20.8382C79.8192 20.3367 80.2549 19.806 80.6266 19.2463L85.1921 21.1006Z" fill="white"/>
<path d="M57.9332 27.398H53.0541V1.82227H57.9332V27.398Z" fill="white"/>
<path d="M49.1801 1.7876V27.3982H44.301V17.217H31.7199V27.3982H26.8408V1.7876H31.7199V12.8786H44.301V1.7876H49.1801Z" fill="white"/>
<path d="M24.7441 21.1006C24.1865 22.1269 23.5011 23.054 22.6878 23.882C21.8747 24.7101 20.9744 25.4214 19.9869 26.0163C18.9995 26.611 17.9307 27.0717 16.7807 27.3982C15.6305 27.7248 14.4399 27.8881 13.2084 27.8881C11.3962 27.8881 9.68853 27.5382 8.08543 26.8385C6.48233 26.1388 5.08238 25.1882 3.88585 23.987C2.68933 22.7858 1.74257 21.3805 1.0456 19.7711C0.348621 18.1616 0 16.4472 0 14.6279C0 12.8085 0.348621 11.0942 1.0456 9.48479C1.74257 7.87541 2.68933 6.47011 3.88585 5.26876C5.08238 4.06754 6.48233 3.11708 8.08543 2.41737C9.68853 1.71753 11.3962 1.36768 13.2084 1.36768C14.4399 1.36768 15.6305 1.53097 16.7807 1.85755C17.9307 2.18413 18.9995 2.64472 19.9869 3.23958C20.9744 3.8343 21.8747 4.54578 22.6878 5.37374C23.5011 6.20183 24.1865 7.11739 24.7441 8.12028L20.1786 9.97453C19.8069 9.41484 19.3712 8.88993 18.8718 8.40019C18.3722 7.91031 17.8203 7.47888 17.2163 7.10562C16.6122 6.73236 15.9733 6.44082 15.2995 6.23099C14.6257 6.02102 13.9287 5.91604 13.2084 5.91604C12.0468 5.91604 10.9606 6.15516 9.94989 6.63327C8.9392 7.11151 8.06225 7.74702 7.31865 8.54007C6.57518 9.33313 5.98278 10.2603 5.54131 11.3217C5.09983 12.3828 4.8791 13.485 4.8791 14.6279C4.8791 15.7942 5.09983 16.9021 5.54131 17.9517C5.98278 19.0013 6.57518 19.9226 7.31865 20.7157C8.06225 21.5087 8.9392 22.1444 9.94989 22.6225C10.9606 23.1006 12.0468 23.3397 13.2084 23.3397C13.9287 23.3397 14.6257 23.2347 15.2995 23.0249C15.9733 22.8149 16.6122 22.5234 17.2163 22.1501C17.8203 21.777 18.3722 21.3397 18.8718 20.8382C19.3712 20.3367 19.8069 19.806 20.1786 19.2463L24.7441 21.1006Z" fill="white"/>
<path d="M98.2684 29.2837C106.318 29.2837 112.843 22.7283 112.843 14.6418C112.843 6.55537 106.318 0 98.2684 0C90.2189 0 83.6935 6.55537 83.6935 14.6418C83.6935 22.7283 90.2189 29.2837 98.2684 29.2837Z" fill="#FEFEFE"/>
<path fill-rule="evenodd" clip-rule="evenodd" d="M112.478 17.9406C112.096 19.5441 111.478 21.0603 110.633 22.3932L107.322 15.8994L112.478 17.9406Z" fill="#C32B23"/>
<path fill-rule="evenodd" clip-rule="evenodd" d="M99.2432 0.0351562C99.3789 0.0434479 99.516 0.0530769 99.6548 0.064177L99.6909 0.914337L99.2432 0.0351562Z" fill="#E84145"/>
<path fill-rule="evenodd" clip-rule="evenodd" d="M93.0257 8.92745L88.213 10.1419L87.527 7.96936L94.4144 0.515316C95.4664 0.222835 96.5143 0.0563337 97.5649 0.0136719L93.0257 8.92745Z" fill="#E84145"/>
<path fill-rule="evenodd" clip-rule="evenodd" d="M86.7825 5.62274C88.8081 3.04992 91.509 1.29798 94.4154 0.515625L87.527 7.96994L86.7825 5.62274Z" fill="#A52621"/>
<path fill-rule="evenodd" clip-rule="evenodd" d="M83.9997 17.6437L86.4183 15.8566L85.6109 15.371L89.2764 13.5103L88.589 11.3335L83.694 14.4482C83.6848 15.6934 83.8061 16.6987 83.9997 17.6437Z" fill="#E94D51"/>
<path fill-rule="evenodd" clip-rule="evenodd" d="M89.6525 14.701L90.1712 14.5332L92.274 10.4038L88.8801 12.4696L89.6525 14.701Z" fill="#E94A45"/>
<path fill-rule="evenodd" clip-rule="evenodd" d="M92.2715 10.4089L88.9387 12.4408L88.5891 11.3336L92.3011 9.08533L93.0375 8.90479L92.2715 10.4089Z" fill="#932B1F"/>
<path fill-rule="evenodd" clip-rule="evenodd" d="M92.3011 9.08545L88.5891 11.3337L88.0358 9.58174L92.3011 9.08545Z" fill="#E63C28"/>
<path fill-rule="evenodd" clip-rule="evenodd" d="M88.7151 17.3923L87.3379 16.5078L89.111 16.6148L88.7151 17.3923Z" fill="#E94A45"/>
<path fill-rule="evenodd" clip-rule="evenodd" d="M89.8184 15.2261L89.6849 14.8035L90.0792 14.7139L89.8184 15.2261Z" fill="#A92C21"/>
<path fill-rule="evenodd" clip-rule="evenodd" d="M110.94 19.049L99.6548 0.0639903L99.2443 0.0371094L108.939 19.074L110.94 19.049L110.966 18.7476L110.94 19.049Z" fill="#E63B26"/>
<path fill-rule="evenodd" clip-rule="evenodd" d="M99.6547 0.0639648L106.216 11.1031L111.731 8.9978C109.706 4.1944 105.189 0.593426 99.6547 0.0639648Z" fill="#E94D51"/>
<path fill-rule="evenodd" clip-rule="evenodd" d="M106.216 11.1033L110.94 19.0492L111.731 8.99805L106.216 11.1033Z" fill="#E94A45"/>
<path fill-rule="evenodd" clip-rule="evenodd" d="M109.333 16.3465L109.01 17.0109L110.94 19.0493L111.195 15.8047L109.333 16.3465Z" fill="#A92C21"/>
<path fill-rule="evenodd" clip-rule="evenodd" d="M106.216 11.1033L107.341 12.9945L111.491 12.0458L111.731 8.99805L106.216 11.1033Z" fill="#BD2922"/>
<path fill-rule="evenodd" clip-rule="evenodd" d="M110.94 19.0489L111.024 17.9826L112.561 17.6069L109.932 21.0251L108.939 19.0739L110.94 19.0489Z" fill="#E74036"/>
<path fill-rule="evenodd" clip-rule="evenodd" d="M102.05 5.54687L102.642 5.08936L103.61 6.71746L102.946 7.3071L102.05 5.54687Z" fill="#E53524"/>
<path fill-rule="evenodd" clip-rule="evenodd" d="M111.731 8.99805L111.122 16.7358L112.707 16.6897C113.061 13.9167 112.721 11.4185 111.731 8.99805Z" fill="#E94A45"/>
<path fill-rule="evenodd" clip-rule="evenodd" d="M88.647 11.2983L83.694 14.4481C83.7487 11.0307 84.893 8.01724 86.7824 5.62256L88.647 11.2983Z" fill="#A52621"/>
<path fill-rule="evenodd" clip-rule="evenodd" d="M83.9997 17.6436C84.1973 18.5998 84.4569 19.3939 84.8311 20.3214L87.6061 19.57L88.7509 17.3219L86.4183 15.8564L83.9997 17.6436Z" fill="#CA2E23"/>
<path fill-rule="evenodd" clip-rule="evenodd" d="M84.6027 19.7383C84.6959 19.9987 84.7533 20.1236 84.8311 20.3215L87.6061 19.5702L88.4809 17.8522L88.3195 17.7974L84.6027 19.7383Z" fill="#EA524D"/>
<path fill-rule="evenodd" clip-rule="evenodd" d="M99.6547 0.0639648L102.642 5.08923L106.188 2.34764C104.29 1.11018 102.065 0.298805 99.6547 0.0639648Z" fill="#E73B34"/>
<path fill-rule="evenodd" clip-rule="evenodd" d="M86.0581 22.61C85.5967 21.8985 85.1891 21.1353 84.8311 20.3216L87.6061 19.5703L86.0581 22.61Z" fill="#E53524"/>
<path fill-rule="evenodd" clip-rule="evenodd" d="M111.024 17.9827L111.122 16.7355L112.707 16.6895C112.657 17.1162 112.575 17.5143 112.478 17.9407L111.024 17.9827Z" fill="#C32B23"/>
<path fill-rule="evenodd" clip-rule="evenodd" d="M87.3379 16.5079L85.6109 15.3709L89.2764 13.5103L89.8183 15.226L89.111 16.6149L87.3379 16.5079Z" fill="#CA2E23"/>
<path fill-rule="evenodd" clip-rule="evenodd" d="M85.5306 14.6985L84.6631 14.8694L83.694 14.4484L85.3725 13.3804L85.5306 14.6985Z" fill="#CA2E23"/>
<path fill-rule="evenodd" clip-rule="evenodd" d="M99.4027 10.5062L95.5925 14.1717L98.3944 8.42236L99.4027 10.5062Z" fill="#E84145"/>
<path fill-rule="evenodd" clip-rule="evenodd" d="M100.116 17.4923L100.196 14.3798L101.084 13.9814L102.783 17.4923H100.116Z" fill="#CC2D23"/>
<path fill-rule="evenodd" clip-rule="evenodd" d="M95.5925 14.1718L99.4027 10.5063L100.145 12.0404L100.328 17.4922H93.9744L95.5925 14.1718Z" fill="#A92F21"/>
<path fill-rule="evenodd" clip-rule="evenodd" d="M100.281 15.7497L96.954 16.9247L100.253 15.2593L100.281 15.7497Z" fill="#E94D51"/>
<path fill-rule="evenodd" clip-rule="evenodd" d="M100.223 14.3702L101.084 13.9822L100.145 12.0405L100.223 14.3702Z" fill="#E94D51"/>
<path fill-rule="evenodd" clip-rule="evenodd" d="M89.6848 14.8035L89.6525 14.701L90.1712 14.5332L90.0791 14.7139L89.6848 14.8035Z" fill="#E42925"/>
<path fill-rule="evenodd" clip-rule="evenodd" d="M87.4677 16.5156L88.7597 17.3048L88.4822 17.8495L88.3194 17.7972L87.4677 16.5156Z" fill="#A92C21"/>
<path fill-rule="evenodd" clip-rule="evenodd" d="M86.0526 22.6231C85.5911 21.9116 85.1679 21.125 84.8311 20.3216L87.6061 19.5703L86.0526 22.6231Z" fill="#CB2F23"/>
<path fill-rule="evenodd" clip-rule="evenodd" d="M87.1838 6.88312L86.8738 5.90137L86.0428 7.06367L87.0181 6.35861L85.7148 8.04034L87.1838 6.88312Z" fill="#E84145"/>
<path fill-rule="evenodd" clip-rule="evenodd" d="M106.855 12.1775L107.738 13.6629L111.379 13.4723L111.579 10.9321L111.179 11.9446L110.419 11.3978L106.855 12.1775Z" fill="#E63B26"/>
<path fill-rule="evenodd" clip-rule="evenodd" d="M107.738 13.6631L109.333 16.3464L107.763 14.7694L107.738 13.6631Z" fill="#932B1F"/>
<path fill-rule="evenodd" clip-rule="evenodd" d="M110.94 19.049L99.6547 0.0639648L100.003 1.51366L100.001 1.52396L102.053 5.55196L102.424 5.25787L110.966 18.7476L110.94 19.049Z" fill="#C32B23"/>
<path fill-rule="evenodd" clip-rule="evenodd" d="M97.5809 29.2846L93.1594 22.3208H100.004L99.8137 29.218L97.5809 29.2846Z" fill="#BC2F22"/>
<path fill-rule="evenodd" clip-rule="evenodd" d="M107.049 26.3195C105.031 27.8613 102.578 28.8883 99.8137 29.218L99.9916 22.3208H105.075L107.049 26.3195Z" fill="#CC2D23"/>
<path fill-rule="evenodd" clip-rule="evenodd" d="M97.5766 29.2798C94.6068 29.0932 91.8855 28.1156 89.6445 26.4408L91.643 22.3208H93.2002L97.5766 29.2798Z" fill="#E52C33"/>
<path fill-rule="evenodd" clip-rule="evenodd" d="M99.8137 29.218C99.0258 29.2957 98.3355 29.3089 97.5809 29.2846L98.7803 22.89L99.6524 22.3208H100.307L99.8137 29.218Z" fill="#A22B21"/>
<path fill-rule="evenodd" clip-rule="evenodd" d="M93.3477 23.4584L93.6366 23.1211L96.0718 23.5623L93.3477 23.4584Z" fill="#EA5452"/>
<path fill-rule="evenodd" clip-rule="evenodd" d="M98.1759 29.2665L97.5809 29.2845L94.9199 26.2099L95.8037 24.8325L98.1759 29.2665Z" fill="#A22B21"/>
<path fill-rule="evenodd" clip-rule="evenodd" d="M102.838 23.3833L105.573 23.3288L105.09 22.3498L104.964 22.3208H103.043L102.838 23.3833Z" fill="#A22B21"/>
<path fill-rule="evenodd" clip-rule="evenodd" d="M111.379 13.4727L111.157 16.2841L111.786 15.6032L111.379 13.4727Z" fill="#E63B26"/>
</svg>
